<svg width="30" height="31" viewBox="0 0 30 31" fill="none" xmlns="http://www.w3.org/2000/svg">
<g clip-path="url(#clip0)">
<path d="M15 0.5C15.4973 0.5 15.9742 0.697544 16.3258 1.04917C16.6775 1.40081 16.875 1.87772 16.875 2.375V13.625H28.125C28.6223 13.625 29.0992 13.8225 29.4508 14.1742C29.8025 14.5258 30 15.0027 30 15.5C30 15.9973 29.8025 16.4742 29.4508 16.8258C29.0992 17.1775 28.6223 17.375 28.125 17.375H16.875V28.625C16.875 29.1223 16.6775 29.5992 16.3258 29.9508C15.9742 30.3025 15.4973 30.5 15 30.5C14.5027 30.5 14.0258 30.3025 13.6742 29.9508C13.3225 29.5992 13.125 29.1223 13.125 28.625V17.375H1.875C1.37772 17.375 0.900806 17.1775 0.549175 16.8258C0.197544 16.4742 0 15.9973 0 15.5C0 15.0027 0.197544 14.5258 0.549175 14.1742C0.900806 13.8225 1.37772 13.625 1.875 13.625H13.125V2.375C13.125 1.87772 13.3225 1.40081 13.6742 1.04917C14.0258 0.697544 14.5027 0.5 15 0.5V0.5Z" fill="url(#paint0_linear)"/>
</g>
<defs>
<linearGradient id="paint0_linear" x1="15" y1="0.5" x2="15" y2="30.5" gradientUnits="userSpaceOnUse">
<stop offset="0.21875" stop-color="#F8B302"/>
<stop offset="1" stop-color="#F82D00"/>
</linearGradient>
<clipPath id="clip0">
<rect width="30" height="30" fill="white" transform="translate(0 0.5)"/>
</clipPath>
</defs>
</svg>
