<svg width="40" height="41" viewBox="0 0 40 41" fill="none" xmlns="http://www.w3.org/2000/svg">
<path d="M38.5705 0.729423C38.1398 0.559557 37.6552 0.481488 37.1695 0.503702C36.6837 0.525917 36.2154 0.647565 35.8154 0.85542L1.14409 18.8551C0.790869 19.0399 0.502397 19.286 0.303208 19.5724C0.104018 19.8588 0 20.177 0 20.5C0 20.8231 0.104018 21.1413 0.303208 21.4277C0.502397 21.7141 0.790869 21.9602 1.14409 22.145L35.8154 40.1447C36.2156 40.3523 36.6838 40.4739 37.1694 40.4962C37.6551 40.5186 38.1397 40.4409 38.5707 40.2716C39.0017 40.1023 39.3627 39.8478 39.6146 39.5356C39.8666 39.2235 39.9998 38.8656 40 38.5007V2.50139C40.0001 2.13632 39.8669 1.7782 39.6149 1.46585C39.3629 1.15349 39.0017 0.898814 38.5705 0.729423ZM34.6659 34.6828L7.3476 20.501L34.6659 6.31932V34.6828Z" fill="url(#paint0_linear)"/>
<defs>
<linearGradient id="paint0_linear" x1="0.000974089" y1="-9.5" x2="116.501" y2="72.5" gradientUnits="userSpaceOnUse">
<stop stop-color="#F8B500"/>
<stop offset="1" stop-color="#FF0000"/>
</linearGradient>
</defs>
</svg>
