<svg width="50" height="51" viewBox="0 0 50 51" fill="none" xmlns="http://www.w3.org/2000/svg">
<path d="M10.4173 13.125H47.9173V38.125H10.4173V13.125ZM29.1673 19.375C30.8249 19.375 32.4146 20.0335 33.5867 21.2056C34.7588 22.3777 35.4173 23.9674 35.4173 25.625C35.4173 27.2826 34.7588 28.8723 33.5867 30.0444C32.4146 31.2165 30.8249 31.875 29.1673 31.875C27.5097 31.875 25.92 31.2165 24.7479 30.0444C23.5758 28.8723 22.9173 27.2826 22.9173 25.625C22.9173 23.9674 23.5758 22.3777 24.7479 21.2056C25.92 20.0335 27.5097 19.375 29.1673 19.375ZM18.7507 17.2917C18.7507 18.3967 18.3117 19.4565 17.5303 20.2379C16.7489 21.0193 15.6891 21.4583 14.584 21.4583V29.7917C15.6891 29.7917 16.7489 30.2307 17.5303 31.0121C18.3117 31.7935 18.7507 32.8533 18.7507 33.9583H39.584C39.584 32.8533 40.023 31.7935 40.8044 31.0121C41.5858 30.2307 42.6456 29.7917 43.7506 29.7917V21.4583C42.6456 21.4583 41.5858 21.0193 40.8044 20.2379C40.023 19.4565 39.584 18.3967 39.584 17.2917H18.7507ZM2.08398 21.4583H6.25065V42.2917H39.584V46.4583H2.08398V21.4583Z" fill="#F55B5B"/>
</svg>
