<svg width="60" height="60" viewBox="0 0 60 60" fill="none" xmlns="http://www.w3.org/2000/svg">
<path d="M45.625 7.5C47.4484 7.5 49.197 8.22433 50.4864 9.51364C51.7757 10.803 52.5 12.5516 52.5 14.375V45.625C52.5 47.4484 51.7757 49.197 50.4864 50.4864C49.197 51.7757 47.4484 52.5 45.625 52.5H14.375C12.5516 52.5 10.803 51.7757 9.51364 50.4864C8.22433 49.197 7.5 47.4484 7.5 45.625V14.375C7.5 12.5516 8.22433 10.803 9.51364 9.51364C10.803 8.22433 12.5516 7.5 14.375 7.5H45.625ZM45.625 11.25H14.375C12.65 11.25 11.25 12.65 11.25 14.375V45.625C11.25 47.35 12.65 48.75 14.375 48.75H45.625C47.35 48.75 48.75 47.35 48.75 45.625V14.375C48.75 12.65 47.35 11.25 45.625 11.25ZM25 36.1L41.175 19.925C41.51 19.5926 41.958 19.3988 42.4297 19.3822C42.9013 19.3655 43.3618 19.5274 43.7194 19.8354C44.0769 20.1434 44.3052 20.5749 44.3586 21.0438C44.412 21.5127 44.2866 21.9845 44.0075 22.365L43.825 22.575L26.325 40.075C26.0075 40.3925 25.5866 40.5856 25.1389 40.6191C24.6911 40.6526 24.2462 40.5243 23.885 40.2575L23.675 40.075L16.175 32.575C15.8426 32.24 15.6488 31.792 15.6322 31.3204C15.6155 30.8487 15.7774 30.3882 16.0854 30.0306C16.3934 29.6731 16.8249 29.4448 17.2938 29.3914C17.7627 29.338 18.2345 29.4634 18.615 29.7425L18.825 29.925L25 36.1L41.175 19.925L25 36.1Z" fill="#F8B500"/>
</svg>
