<svg width="71" height="70" viewBox="0 0 71 70" fill="none" xmlns="http://www.w3.org/2000/svg">
<path d="M51.1706 5.83386C52.2239 5.83386 53.2669 6.04133 54.24 6.44441C55.2131 6.8475 56.0974 7.43831 56.8422 8.18311C57.587 8.92791 58.1778 9.81212 58.5809 10.7853C58.9839 11.7584 59.1914 12.8014 59.1914 13.8547V35.4497C57.7888 34.9541 56.283 34.8246 54.8164 35.0734V13.8547C54.8164 11.8422 53.1831 10.2089 51.1706 10.2089H14.7122C12.6997 10.2089 11.0664 11.8422 11.0664 13.8547V50.313C11.0664 52.3255 12.6997 53.9589 14.7122 53.9589H42.2747C41.9014 54.8397 41.6914 55.808 41.6914 56.8289C41.6914 57.3393 41.7206 57.8439 41.7702 58.3339H14.7122C13.6589 58.3339 12.6159 58.1264 11.6428 57.7233C10.6697 57.3202 9.78546 56.7294 9.04065 55.9846C8.29585 55.2398 7.70504 54.3556 7.30196 53.3825C6.89887 52.4093 6.69141 51.3663 6.69141 50.313V13.8547C6.69141 11.7274 7.53646 9.68731 9.04065 8.18311C10.5449 6.67891 12.585 5.83386 14.7122 5.83386H51.1706ZM56.2747 37.8705C57.0559 37.8454 57.8341 37.9776 58.5633 38.2591C59.2924 38.5406 59.9575 38.9658 60.519 39.5093C61.0806 40.0529 61.5273 40.7038 61.8324 41.4233C62.1376 42.1428 62.295 42.9164 62.2954 43.6979C62.2958 44.4795 62.1391 45.2532 61.8347 45.973C61.5303 46.6929 61.0843 47.3442 60.5232 47.8883C59.9622 48.4324 59.2975 48.8583 58.5687 49.1405C57.8399 49.4228 57.0618 49.5557 56.2806 49.5314C54.7661 49.4842 53.3295 48.8497 52.2746 47.762C51.2198 46.6744 50.6295 45.2189 50.6287 43.7038C50.628 42.1886 51.2168 40.7326 52.2706 39.6439C53.3243 38.5552 54.7604 37.9192 56.2747 37.8705ZM63.5664 52.4539C64.7267 52.4539 65.8395 52.9148 66.66 53.7353C67.4805 54.5557 67.9414 55.6685 67.9414 56.8289C67.9414 60.0839 66.6027 62.6914 64.4064 64.453C62.2452 66.1884 59.346 67.0372 56.2747 67.0372C53.2035 67.0372 50.3043 66.1914 48.1431 64.453C46.2422 62.9406 45.009 60.7442 44.7072 58.3339C44.6403 57.835 44.6072 57.3322 44.6081 56.8289C44.6069 56.254 44.7193 55.6846 44.9388 55.1533C45.1582 54.6219 45.4804 54.1392 45.8869 53.7327C46.2934 53.3262 46.7761 53.004 47.3075 52.7845C47.8388 52.5651 48.4082 52.4527 48.9831 52.4539H63.5664ZM27.1081 39.1976L45.9789 20.3268C46.3692 19.9354 46.8933 19.7063 47.4456 19.6855C47.998 19.6647 48.5377 19.8538 48.9564 20.2148C49.375 20.5758 49.6414 21.0819 49.7021 21.6313C49.7628 22.1807 49.6132 22.7327 49.2835 23.1764L49.0706 23.4214L28.6539 43.838C28.2835 44.2085 27.7925 44.4337 27.2701 44.4728C26.7477 44.5119 26.2286 44.3622 25.8072 44.0509L25.5622 43.838L16.8122 35.088C16.4244 34.6972 16.1983 34.1745 16.1789 33.6243C16.1595 33.074 16.3484 32.5367 16.7077 32.1196C17.067 31.7024 17.5705 31.4361 18.1175 31.3738C18.6645 31.3115 19.215 31.4578 19.6589 31.7834L19.9039 31.9964L27.1081 39.2005V39.1976Z" fill="#F8B500"/>
</svg>
