<svg width="60" height="61" viewBox="0 0 60 61" fill="none" xmlns="http://www.w3.org/2000/svg">
<path d="M48.75 8H11.25C10.2554 8 9.30161 8.39509 8.59835 9.09835C7.89509 9.80161 7.5 10.7554 7.5 11.75V49.25C7.5 50.2446 7.89509 51.1984 8.59835 51.9016C9.30161 52.6049 10.2554 53 11.25 53H48.75C49.7446 53 50.6984 52.6049 51.4016 51.9016C52.1049 51.1984 52.5 50.2446 52.5 49.25V11.75C52.5 10.7554 52.1049 9.80161 51.4016 9.09835C50.6984 8.39509 49.7446 8 48.75 8V8ZM11.25 49.25V11.75H48.75V49.25H11.25Z" fill="#F8B500"/>
</svg>
