<svg width="36" height="36" viewBox="0 0 36 36" fill="none" xmlns="http://www.w3.org/2000/svg">
<path d="M1.23197 1.23331C1.70079 0.764636 2.33656 0.501347 2.99947 0.501347C3.66238 0.501347 4.29815 0.764636 4.76697 1.23331L17.9995 14.4658L31.232 1.23331C31.4626 0.994538 31.7384 0.804082 32.0435 0.67306C32.3485 0.542037 32.6765 0.473072 33.0085 0.470187C33.3404 0.467303 33.6696 0.530557 33.9769 0.656259C34.2841 0.781961 34.5632 0.967594 34.798 1.20233C35.0327 1.43706 35.2183 1.71619 35.344 2.02343C35.4697 2.33067 35.533 2.65987 35.5301 2.99182C35.5272 3.32376 35.4582 3.65181 35.3272 3.95682C35.1962 4.26183 35.0057 4.5377 34.767 4.76831L21.5345 18.0008L34.767 31.2333C35.2224 31.7048 35.4743 32.3363 35.4687 32.9918C35.463 33.6473 35.2 34.2743 34.7365 34.7379C34.273 35.2014 33.646 35.4643 32.9905 35.47C32.335 35.4757 31.7035 35.2237 31.232 34.7683L17.9995 21.5358L4.76697 34.7683C4.29546 35.2237 3.66395 35.4757 3.00846 35.47C2.35297 35.4643 1.72594 35.2014 1.26242 34.7379C0.798899 34.2743 0.535977 33.6473 0.530281 32.9918C0.524585 32.3363 0.776571 31.7048 1.23197 31.2333L14.4645 18.0008L1.23197 4.76831C0.763289 4.29949 0.5 3.66372 0.5 3.00081C0.5 2.3379 0.763289 1.70213 1.23197 1.23331Z" fill="url(#paint0_linear_36:861)"/>
<defs>
<linearGradient id="paint0_linear_36:861" x1="18.0151" y1="0.470093" x2="18.0151" y2="35.4701" gradientUnits="userSpaceOnUse">
<stop stop-color="#F8B500"/>
<stop offset="1" stop-color="#F80000"/>
</linearGradient>
</defs>
</svg>
