<svg width="56" height="55" viewBox="0 0 56 55" fill="none" xmlns="http://www.w3.org/2000/svg">
<path d="M38.1794 12.3931L43.0331 17.2445L38.1794 12.3931ZM41.3006 8.1191L28.1762 21.2435C27.4981 21.9207 27.0356 22.7834 26.8471 23.7231L25.6348 29.7914L31.7031 28.5768C32.6427 28.3889 33.5043 27.9283 34.1827 27.2499L47.3071 14.1256C47.7015 13.7312 48.0143 13.263 48.2277 12.7477C48.4412 12.2324 48.551 11.6801 48.551 11.1223C48.551 10.5646 48.4412 10.0123 48.2277 9.49699C48.0143 8.9817 47.7015 8.51349 47.3071 8.1191C46.9127 7.72471 46.4445 7.41186 45.9292 7.19842C45.4139 6.98498 44.8616 6.87512 44.3038 6.87512C43.7461 6.87512 43.1938 6.98498 42.6785 7.19842C42.1632 7.41186 41.695 7.72471 41.3006 8.1191V8.1191Z" stroke="url(#paint0_linear_471:670)" stroke-width="3" stroke-linecap="round" stroke-linejoin="round"/>
<path d="M43.9687 34.375V41.25C43.9687 42.4656 43.4859 43.6314 42.6263 44.4909C41.7668 45.3505 40.601 45.8334 39.3854 45.8334H14.1771C12.9615 45.8334 11.7957 45.3505 10.9362 44.4909C10.0766 43.6314 9.59375 42.4656 9.59375 41.25V16.0417C9.59375 14.8261 10.0766 13.6603 10.9362 12.8008C11.7957 11.9413 12.9615 11.4584 14.1771 11.4584H21.0521" stroke="url(#paint1_linear_471:670)" stroke-width="4" stroke-linecap="round" stroke-linejoin="round"/>
<defs>
<linearGradient id="paint0_linear_471:670" x1="37.0929" y1="6.87512" x2="37.0929" y2="29.7914" gradientUnits="userSpaceOnUse">
<stop stop-color="#9A9A9A"/>
<stop offset="1" stop-color="#9A9A9A"/>
</linearGradient>
<linearGradient id="paint1_linear_471:670" x1="26.7812" y1="11.4584" x2="26.7812" y2="45.8334" gradientUnits="userSpaceOnUse">
<stop stop-color="#9A9A9A"/>
<stop offset="1" stop-color="#9A9A9A"/>
</linearGradient>
</defs>
</svg>
