<svg width="40" height="41" viewBox="0 0 40 41" fill="none" xmlns="http://www.w3.org/2000/svg">
<path d="M3.23197 3.73331C3.70079 3.26464 4.33656 3.00135 4.99947 3.00135C5.66238 3.00135 6.29815 3.26464 6.76697 3.73331L19.9995 16.9658L33.232 3.73331C33.4626 3.49454 33.7384 3.30408 34.0435 3.17306C34.3485 3.04204 34.6765 2.97307 35.0085 2.97019C35.3404 2.9673 35.6696 3.03056 35.9769 3.15626C36.2841 3.28196 36.5632 3.46759 36.798 3.70233C37.0327 3.93706 37.2183 4.21619 37.344 4.52343C37.4697 4.83067 37.533 5.15987 37.5301 5.49182C37.5272 5.82376 37.4582 6.15181 37.3272 6.45682C37.1962 6.76183 37.0057 7.0377 36.767 7.26831L23.5345 20.5008L36.767 33.7333C37.2224 34.2048 37.4743 34.8363 37.4687 35.4918C37.463 36.1473 37.2 36.7743 36.7365 37.2379C36.273 37.7014 35.646 37.9643 34.9905 37.97C34.335 37.9757 33.7035 37.7237 33.232 37.2683L19.9995 24.0358L6.76697 37.2683C6.29546 37.7237 5.66395 37.9757 5.00846 37.97C4.35297 37.9643 3.72594 37.7014 3.26242 37.2379C2.7989 36.7743 2.53598 36.1473 2.53028 35.4918C2.52459 34.8363 2.77657 34.2048 3.23197 33.7333L16.4645 20.5008L3.23197 7.26831C2.76329 6.79949 2.5 6.16372 2.5 5.50081C2.5 4.8379 2.76329 4.20213 3.23197 3.73331Z" fill="#9A9A9A"/>
</svg>
