<svg width="71" height="71" viewBox="0 0 71 71" fill="none" xmlns="http://www.w3.org/2000/svg">
<g clip-path="url(#clip0_59:588)">
<path d="M49.0514 9.50012C50.1048 9.50012 51.1477 9.70759 52.1209 10.1107C53.094 10.5138 53.9782 11.1046 54.723 11.8494C55.4678 12.5942 56.0586 13.4784 56.4617 14.4515C56.8648 15.4246 57.0723 16.4676 57.0723 17.521V39.116C55.6697 38.6203 54.1639 38.4908 52.6973 38.7397V17.521C52.6973 15.5085 51.0639 13.8751 49.0514 13.8751H12.5931C10.5806 13.8751 8.94727 15.5085 8.94727 17.521V53.9793C8.94727 55.9918 10.5806 57.6251 12.5931 57.6251H40.1556C39.7823 58.506 39.5723 59.4743 39.5723 60.4951C39.5723 61.0055 39.6014 61.5101 39.651 62.0001H12.5931C11.5398 62.0001 10.4968 61.7927 9.52366 61.3896C8.55053 60.9865 7.66632 60.3957 6.92151 59.6509C6.17671 58.9061 5.5859 58.0219 5.18282 57.0487C4.77973 56.0756 4.57227 55.0326 4.57227 53.9793V17.521C4.57227 15.3937 5.41732 13.3536 6.92151 11.8494C8.42571 10.3452 10.4658 9.50012 12.5931 9.50012H49.0514ZM54.1556 41.5368C54.9368 41.5117 55.715 41.6438 56.4441 41.9253C57.1732 42.2069 57.8383 42.632 58.3999 43.1756C58.9615 43.7192 59.4081 44.37 59.7133 45.0896C60.0184 45.8091 60.1759 46.5826 60.1763 47.3642C60.1767 48.1458 60.02 48.9194 59.7156 49.6393C59.4111 50.3591 58.9651 51.0104 58.4041 51.5546C57.8431 52.0987 57.1784 52.5245 56.4496 52.8068C55.7207 53.089 54.9426 53.2219 54.1614 53.1976C52.647 53.1505 51.2103 52.5159 50.1555 51.4283C49.1006 50.3406 48.5104 48.8852 48.5096 47.37C48.5089 45.8549 49.0977 44.3989 50.1514 43.3101C51.2052 42.2214 52.6412 41.5854 54.1556 41.5368ZM61.4473 56.1201C62.6076 56.1201 63.7204 56.5811 64.5409 57.4015C65.3613 58.222 65.8223 59.3348 65.8223 60.4951C65.8223 63.7501 64.4835 66.3576 62.2873 68.1193C60.126 69.8547 57.2269 70.7035 54.1556 70.7035C51.0844 70.7035 48.1852 69.8576 46.0239 68.1193C44.1231 66.6069 42.8898 64.4104 42.5881 62.0001C42.5212 61.5013 42.4881 60.9984 42.4889 60.4951C42.4878 59.9203 42.6002 59.3508 42.8196 58.8195C43.0391 58.2882 43.3613 57.8054 43.7678 57.399C44.1743 56.9925 44.657 56.6703 45.1883 56.4508C45.7197 56.2313 46.2891 56.119 46.8639 56.1201H61.4473Z" fill="#9A9A9A"/>
</g>
<defs>
<clipPath id="clip0_59:588">
<rect width="70" height="70" fill="white" transform="translate(0.572266 0.5)"/>
</clipPath>
</defs>
</svg>
