<svg width="70" height="71" viewBox="0 0 70 71" fill="none" xmlns="http://www.w3.org/2000/svg">
<path d="M53.2292 9.25C55.3564 9.25 57.3966 10.095 58.9008 11.5992C60.405 13.1034 61.25 15.1436 61.25 17.2708V53.7292C61.25 55.8564 60.405 57.8966 58.9008 59.4008C57.3966 60.905 55.3564 61.75 53.2292 61.75H16.7708C14.6436 61.75 12.6034 60.905 11.0992 59.4008C9.59505 57.8966 8.75 55.8564 8.75 53.7292V17.2708C8.75 15.1436 9.59505 13.1034 11.0992 11.5992C12.6034 10.095 14.6436 9.25 16.7708 9.25H53.2292ZM53.2292 13.625H16.7708C14.7583 13.625 13.125 15.2583 13.125 17.2708V53.7292C13.125 55.7417 14.7583 57.375 16.7708 57.375H53.2292C55.2417 57.375 56.875 55.7417 56.875 53.7292V17.2708C56.875 15.2583 55.2417 13.625 53.2292 13.625ZM29.1667 42.6167L48.0375 23.7458C48.4283 23.358 48.951 23.1319 49.5013 23.1125C50.0515 23.0931 50.5888 23.282 51.0059 23.6413C51.4231 24.0006 51.6894 24.5041 51.7517 25.0511C51.814 25.5981 51.6677 26.1486 51.3421 26.5925L51.1292 26.8375L30.7125 47.2542C30.3421 47.6246 29.8511 47.8499 29.3287 47.889C28.8063 47.928 28.2872 47.7783 27.8658 47.4671L27.6208 47.2542L18.8708 38.5042C18.483 38.1133 18.2569 37.5906 18.2375 37.0404C18.2181 36.4902 18.407 35.9529 18.7663 35.5357C19.1256 35.1186 19.6291 34.8523 20.1761 34.79C20.7231 34.7277 21.2736 34.8739 21.7175 35.1996L21.9625 35.4125L29.1667 42.6167L48.0375 23.7458L29.1667 42.6167Z" fill="#41C236"/>
</svg>
