<svg width="46" height="46" viewBox="0 0 46 46" fill="none" xmlns="http://www.w3.org/2000/svg">
<path d="M27.6589 9.92545C26.8784 9.93108 26.1036 9.96905 25.2852 10.1884C24.3936 10.4304 23.5476 10.8166 22.7806 11.3317C21.7034 10.6989 20.66 10.1786 19.6602 10.0562C18.4184 9.90295 17.2653 9.98592 15.9252 10.014C14.3361 10.0464 13.2997 10.8578 11.6178 11.5075C9.93734 12.1544 7.77312 12.7815 4.71875 12.7815H3.3125V26.3167L4.10422 26.7119L6.69594 27.9873L15.9252 38.2698L15.9688 38.3134C17.0234 39.3569 18.4466 39.6156 19.7038 39.5439C20.9623 39.4736 22.1436 39.1051 23.0872 38.5342C25.1642 37.2812 30.8216 33.348 30.8216 33.348L30.9538 33.2594L31.0423 33.1722C31.7117 32.507 32.0478 31.6956 32.2728 30.8434L37.677 28.1181L41.72 26.7569L42.6875 26.4475V12.7815H41.2812C38.9174 12.7977 36.5734 12.3495 34.3822 11.4625C32.7003 10.8058 31.6794 10.0028 30.0734 9.96905C29.2156 9.95217 28.4366 9.91983 27.6575 9.92545H27.6589ZM27.7011 12.738C28.3339 12.7323 29.0652 12.7661 29.9877 12.7815C30.1353 12.7872 31.4867 13.3637 33.3711 14.1006C34.9644 14.7264 37.1778 15.2819 39.875 15.4619V24.4267L36.6223 25.5264H36.5352L36.4466 25.5686L32.1856 27.723C31.9594 27.0704 31.6003 26.4718 31.1309 25.9651L31.0423 25.833L25.0658 18.4951L24.1869 17.3955L23.0872 18.2744L19.3086 21.3512C18.0402 22.2301 17.0122 21.977 15.9688 21.4834C15.6664 21.34 15.6833 21.2964 15.4414 21.1319L21.8581 15.8134L21.9453 15.7262C23.8508 13.8362 25.0222 13.1823 26.0319 12.9137C26.5381 12.7759 27.0711 12.7436 27.7025 12.738H27.7011ZM17.9038 12.7815C18.3729 12.7639 18.8428 12.7784 19.31 12.8251C19.6784 12.8687 20.0961 13.1823 20.4533 13.3089C20.3098 13.4411 20.2058 13.517 20.0567 13.6605L19.9695 13.749L12.2788 20.1194L11.0919 21.0869L12.1466 22.1851C12.1466 22.1851 13.1633 23.2848 14.7397 24.0315C16.3161 24.7783 18.7503 25.2015 20.9356 23.68L21.0242 23.5914L23.7481 21.3512L28.9344 27.723L28.978 27.8115L29.0216 27.8537C29.9497 28.772 29.9286 30.2162 29.0216 31.1514C29.0103 31.1612 29.0328 31.1837 29.0216 31.1936C29.0103 31.2006 28.8247 31.3103 28.8022 31.3272L26.9558 28.8212L24.6706 30.4919L26.4734 32.9078C25.7422 33.4028 25.4131 33.6615 24.627 34.1833L22.7384 31.6337L20.4519 33.3044L22.2547 35.7203C22.0944 35.8187 21.7653 36.0395 21.6388 36.1169C21.1944 36.3855 20.3366 36.6878 19.573 36.7314C18.8544 36.7708 18.3045 36.6048 18.0359 36.3798L17.9923 36.3362L8.58734 25.9215L8.41156 25.7008L6.125 24.5589V15.4619C8.81094 15.2861 11.0413 14.7531 12.6289 14.1442C14.5077 13.4242 15.8492 12.8308 16.0123 12.8251L17.9023 12.7815H17.9038Z" fill="#F8B500"/>
</svg>
