<svg width="30" height="31" viewBox="0 0 30 31" fill="none" xmlns="http://www.w3.org/2000/svg">
<g clip-path="url(#clip0)">
<path d="M15 15.5C18.4518 15.5 21.25 12.7018 21.25 9.25C21.25 5.79822 18.4518 3 15 3C11.5482 3 8.75 5.79822 8.75 9.25C8.75 12.7018 11.5482 15.5 15 15.5Z" stroke="#41C236" stroke-width="2"/>
<path d="M21.2501 28H6.58258C6.22805 28.0001 5.87757 27.9248 5.55438 27.779C5.2312 27.6333 4.9427 27.4205 4.70805 27.1547C4.47339 26.889 4.29794 26.5764 4.19333 26.2376C4.08873 25.8989 4.05737 25.5418 4.10133 25.19L4.58883 21.285C4.7022 20.3778 5.1431 19.5432 5.82862 18.9383C6.51414 18.3333 7.39705 17.9996 8.31133 18H8.75008" stroke="#41C236" stroke-width="2" stroke-linecap="round" stroke-linejoin="round"/>
<path d="M29.5 17.75L23.75 24.25" stroke="#41C236" stroke-width="2" stroke-linecap="round" stroke-linejoin="round"/>
<path d="M20 20.5L23.5 24.25" stroke="#41C236" stroke-width="2" stroke-linecap="round" stroke-linejoin="round"/>
</g>
<defs>
<clipPath id="clip0">
<rect width="30" height="30" fill="white" transform="translate(0 0.5)"/>
</clipPath>
</defs>
</svg>
