<svg width="30" height="30" viewBox="0 0 30 30" fill="none" xmlns="http://www.w3.org/2000/svg">
<path d="M15 15C18.4518 15 21.25 12.2018 21.25 8.75C21.25 5.29822 18.4518 2.5 15 2.5C11.5482 2.5 8.75 5.29822 8.75 8.75C8.75 12.2018 11.5482 15 15 15Z" stroke="#F55B5B" stroke-width="2"/>
<path d="M21.2501 27.5H6.58258C6.22805 27.5001 5.87757 27.4248 5.55438 27.279C5.2312 27.1333 4.9427 26.9205 4.70805 26.6547C4.47339 26.389 4.29794 26.0764 4.19333 25.7376C4.08873 25.3989 4.05737 25.0418 4.10133 24.69L4.58883 20.785C4.7022 19.8778 5.1431 19.0432 5.82862 18.4383C6.51414 17.8333 7.39705 17.4996 8.31133 17.5H8.75008" stroke="#F55B5B" stroke-width="2" stroke-linecap="round" stroke-linejoin="round"/>
<path d="M21.0977 17.3477L26.401 22.651" stroke="#F55B5B" stroke-width="2" stroke-linecap="round" stroke-linejoin="round"/>
<path d="M21.0977 22.6523L26.401 17.349" stroke="#F55B5B" stroke-width="2" stroke-linecap="round" stroke-linejoin="round"/>
</svg>
