<svg width="321" height="388" viewBox="0 0 321 388" fill="none" xmlns="http://www.w3.org/2000/svg">
<g clip-path="url(#clip0)">
<path d="M0 265.478L30.1258 263.477C30.1258 263.477 36.1509 227.447 60.2515 215.437V175.405C60.2515 175.405 88.3689 191.418 94.3941 193.419C100.419 195.421 154.646 169.4 216.905 207.431C269.344 239.457 257.676 295.643 252.675 312.557C251.774 315.619 250.362 318.509 248.497 321.104C244.159 327.108 235.383 339.118 230.964 343.542C224.939 349.547 234.8 382.974 226.947 385.576C220.922 387.578 208.872 361.557 202.847 363.558C170.417 374.458 135.476 375.545 102.428 366.681C101.337 366.378 100.174 366.464 99.1396 366.924C98.1055 367.385 97.2652 368.191 96.7639 369.203C94.0727 374.687 88.7305 384.735 84.4124 387.598C78.3873 391.601 78.3873 365.58 72.3621 361.577C66.337 357.573 0.0603104 299.526 0.0603104 299.526L0 265.478Z" fill="url(#paint0_linear)"/>
<path d="M252.092 271.643C252.092 271.643 276.755 254.209 289.95 267.16C303.145 280.11 301.077 293.621 290.472 296.844C282.559 299.246 270.228 286.035 275.55 277.548C280.872 269.061 290.171 264.518 300.856 271.643C311.541 278.769 316.341 293.061 316.923 301.047" stroke="#F8B500" stroke-width="3.94169" stroke-miterlimit="10" stroke-linecap="round"/>
<path d="M64.2482 279.33C70.4265 279.33 75.4349 274.338 75.4349 268.18C75.4349 262.023 70.4265 257.031 64.2482 257.031C58.07 257.031 53.0615 262.023 53.0615 268.18C53.0615 274.338 58.07 279.33 64.2482 279.33Z" fill="#484848"/>
<path d="M109.959 200.285C109.959 200.285 154.866 188.275 184.008 201.486" stroke="#F8B500" stroke-width="0.985422" stroke-linecap="round" stroke-linejoin="round"/>
<path d="M147.938 155.809C172.739 155.809 192.845 135.771 192.845 111.052C192.845 86.3341 172.739 66.2959 147.938 66.2959C123.136 66.2959 103.03 86.3341 103.03 111.052C103.03 135.771 123.136 155.809 147.938 155.809Z" fill="url(#paint1_linear)"/>
<path d="M147.636 147.862C167.935 147.862 184.39 131.463 184.39 111.233C184.39 91.0024 167.935 74.6027 147.636 74.6027C127.338 74.6027 110.883 91.0024 110.883 111.233C110.883 131.463 127.338 147.862 147.636 147.862Z" stroke="url(#paint2_linear)" stroke-width="0.985422"/>
<path d="M144.077 93.8633C144.077 93.075 143.798 92.411 143.241 91.8713C142.693 91.3315 141.763 90.8431 140.452 90.4061C138.627 89.8492 137.295 89.1252 136.455 88.2342C135.624 87.3345 135.209 86.195 135.209 84.8156C135.209 83.4104 135.616 82.2581 136.43 81.3584C137.252 80.4588 138.379 79.9233 139.81 79.7519V76.9374H141.725V79.7648C143.164 79.9619 144.282 80.5659 145.079 81.5769C145.884 82.5879 146.287 83.9716 146.287 85.7281H143.922C143.922 84.52 143.635 83.5604 143.061 82.8492C142.487 82.1381 141.712 81.7825 140.735 81.7825C139.716 81.7825 138.936 82.0481 138.396 82.5794C137.856 83.102 137.586 83.8346 137.586 84.777C137.586 85.6509 137.869 86.3492 138.435 86.8719C139.009 87.3859 139.947 87.8572 141.249 88.2856C142.56 88.7054 143.58 89.1724 144.308 89.6864C145.045 90.1919 145.585 90.7831 145.927 91.46C146.279 92.1369 146.454 92.9294 146.454 93.8376C146.454 95.2856 146.017 96.4508 145.143 97.3333C144.278 98.2158 143.061 98.7384 141.493 98.9012V101.356H139.591V98.9012C137.998 98.7556 136.747 98.1901 135.839 97.2048C134.939 96.2109 134.489 94.8657 134.489 93.1693H136.867C136.867 94.3602 137.179 95.277 137.805 95.9196C138.43 96.5622 139.317 96.8835 140.465 96.8835C141.588 96.8835 142.47 96.6136 143.113 96.0738C143.755 95.534 144.077 94.7972 144.077 93.8633Z" fill="#F8B500"/>
<path d="M200.256 58.9299C216.583 58.9299 229.819 45.7384 229.819 29.4659C229.819 13.1933 216.583 0.00183105 200.256 0.00183105C183.929 0.00183105 170.693 13.1933 170.693 29.4659C170.693 45.7384 183.929 58.9299 200.256 58.9299Z" fill="url(#paint3_linear)"/>
<path d="M200.055 53.7056C213.421 53.7056 224.256 42.9069 224.256 29.586C224.256 16.265 213.421 5.46631 200.055 5.46631C186.689 5.46631 175.854 16.265 175.854 29.586C175.854 42.9069 186.689 53.7056 200.055 53.7056Z" stroke="url(#paint4_linear)" stroke-width="0.985422"/>
<path d="M197.696 18.3543C197.696 17.8355 197.513 17.3984 197.146 17.0432C196.785 16.6879 196.173 16.3665 195.31 16.0789C194.109 15.7123 193.232 15.2358 192.68 14.6493C192.133 14.0572 191.859 13.3072 191.859 12.3993C191.859 11.4744 192.127 10.716 192.663 10.1238C193.204 9.53172 193.946 9.17927 194.888 9.06649V7.214H196.148V9.07494C197.095 9.20465 197.831 9.60221 198.356 10.2676C198.886 10.9331 199.151 11.8438 199.151 12.9998H197.594C197.594 12.2047 197.405 11.5731 197.028 11.1051C196.65 10.637 196.139 10.403 195.497 10.403C194.825 10.403 194.312 10.5778 193.957 10.9274C193.602 11.2714 193.424 11.7536 193.424 12.3739C193.424 12.9491 193.61 13.4087 193.982 13.7527C194.36 14.091 194.978 14.4012 195.835 14.6832C196.698 14.9595 197.369 15.2668 197.848 15.6052C198.333 15.9379 198.688 16.327 198.914 16.7725C199.145 17.218 199.261 17.7396 199.261 18.3374C199.261 19.2904 198.973 20.0573 198.398 20.6382C197.828 21.219 197.028 21.563 195.996 21.6702V23.2858H194.744V21.6702C193.695 21.5743 192.871 21.2021 192.274 20.5536C191.682 19.8994 191.386 19.0141 191.386 17.8975H192.95C192.95 18.6814 193.156 19.2848 193.568 19.7077C193.98 20.1307 194.563 20.3421 195.319 20.3421C196.058 20.3421 196.638 20.1645 197.061 19.8092C197.484 19.4539 197.696 18.969 197.696 18.3543Z" fill="#F8B500"/>
<path d="M94.4945 70.0989C106.174 70.0989 115.643 60.6624 115.643 49.0218C115.643 37.3812 106.174 27.9446 94.4945 27.9446C82.8146 27.9446 73.3462 37.3812 73.3462 49.0218C73.3462 60.6624 82.8146 70.0989 94.4945 70.0989Z" fill="url(#paint5_linear)"/>
<path d="M94.3338 66.3559C103.895 66.3559 111.646 58.631 111.646 49.1018C111.646 39.5727 103.895 31.8478 94.3338 31.8478C84.7725 31.8478 77.0215 39.5727 77.0215 49.1018C77.0215 58.631 84.7725 66.3559 94.3338 66.3559Z" stroke="url(#paint6_linear)" stroke-width="0.985422"/>
<path d="M92.6667 41.6179C92.6667 41.2467 92.5356 40.9339 92.2733 40.6797C92.015 40.4255 91.5772 40.1955 90.9598 39.9897C90.1003 39.7274 89.4728 39.3864 89.0773 38.9667C88.6859 38.543 88.4902 38.0063 88.4902 37.3566C88.4902 36.6948 88.6818 36.152 89.0652 35.7283C89.4526 35.3046 89.9832 35.0524 90.6571 34.9717V33.6461H91.559V34.9778C92.237 35.0706 92.7636 35.3551 93.1389 35.8312C93.5182 36.3074 93.7079 36.9591 93.7079 37.7864H92.5941C92.5941 37.2174 92.4589 36.7654 92.1886 36.4305C91.9182 36.0955 91.553 35.9281 91.093 35.9281C90.6128 35.9281 90.2455 36.0532 89.9913 36.3034C89.7371 36.5495 89.61 36.8945 89.61 37.3384C89.61 37.75 89.7431 38.0789 90.0095 38.3251C90.2798 38.5672 90.7217 38.7891 91.3351 38.9909C91.9525 39.1886 92.4327 39.4086 92.7757 39.6507C93.1227 39.8888 93.377 40.1672 93.5384 40.486C93.7038 40.8048 93.7866 41.1781 93.7866 41.6058C93.7866 42.2878 93.5808 42.8366 93.1691 43.2522C92.7616 43.6679 92.1886 43.914 91.4501 43.9907V45.1468H90.5542V43.9907C89.8037 43.9221 89.2145 43.6558 88.7868 43.1917C88.363 42.7236 88.1512 42.0901 88.1512 41.2911H89.271C89.271 41.852 89.4183 42.2838 89.7129 42.5864C90.0074 42.8891 90.4251 43.0404 90.9658 43.0404C91.4945 43.0404 91.9101 42.9133 92.2128 42.6591C92.5154 42.4048 92.6667 42.0578 92.6667 41.6179Z" fill="#F8B500"/>
</g>
<defs>
<linearGradient id="paint0_linear" x1="225.441" y1="352.329" x2="17.7171" y2="200.881" gradientUnits="userSpaceOnUse">
<stop stop-color="#F8B500"/>
<stop offset="1" stop-color="#F5775B"/>
</linearGradient>
<linearGradient id="paint1_linear" x1="4102.49" y1="8916.44" x2="7906.39" y2="3231.25" gradientUnits="userSpaceOnUse">
<stop stop-color="#F8B500"/>
<stop offset="0.114583" stop-color="#F8B500"/>
<stop offset="1" stop-color="#F55B5B"/>
</linearGradient>
<linearGradient id="paint2_linear" x1="4132.44" y1="4145.65" x2="6896.3" y2="4145.65" gradientUnits="userSpaceOnUse">
<stop stop-color="#F8B500"/>
<stop offset="0.046875" stop-color="#F8B302"/>
<stop offset="1" stop-color="#F55B5B"/>
</linearGradient>
<linearGradient id="paint3_linear" x1="4932.18" y1="2551" x2="6580.64" y2="86.7918" gradientUnits="userSpaceOnUse">
<stop stop-color="#F8B500"/>
<stop offset="1" stop-color="#F55B5B"/>
</linearGradient>
<linearGradient id="paint4_linear" x1="4389.74" y1="718.444" x2="5604.63" y2="718.444" gradientUnits="userSpaceOnUse">
<stop stop-color="#F8B500"/>
<stop offset="1" stop-color="#F55B5B"/>
</linearGradient>
<linearGradient id="paint5_linear" x1="1482.67" y1="1921.94" x2="2326.78" y2="660.58" gradientUnits="userSpaceOnUse">
<stop stop-color="#F8B500"/>
<stop offset="1" stop-color="#F3F800"/>
</linearGradient>
<linearGradient id="paint6_linear" x1="1387.56" y1="878.332" x2="2019.46" y2="878.332" gradientUnits="userSpaceOnUse">
<stop stop-color="#F8B500"/>
<stop offset="1" stop-color="#F55B5B"/>
</linearGradient>
<clipPath id="clip0">
<rect width="321" height="388" fill="white"/>
</clipPath>
</defs>
</svg>
