<svg width="53" height="41" viewBox="0 0 53 41" fill="none" xmlns="http://www.w3.org/2000/svg">
<path d="M52.4838 2.47594C52.4838 1.82337 52.2003 1.19752 51.6958 0.73608C51.1913 0.27464 50.5071 0.0154058 49.7936 0.0154058C49.6565 0.0154058 49.5247 0.0341131 49.3924 0.05227V0H3.19014V0.0154058C2.47667 0.0154058 1.79242 0.27464 1.28792 0.73608C0.783425 1.19752 0.5 1.82337 0.5 2.47594V37.9644H0.530078C0.681669 39.1919 1.80717 40.1499 3.18954 40.1499V40.1653H49.3918V40.113C49.5235 40.1311 49.6553 40.1499 49.793 40.1499C51.176 40.1499 52.3015 39.1925 52.4531 37.9644H52.5V2.47594H52.4838ZM46.5109 34.6868H39.9775C39.9555 34.6023 39.922 34.5205 39.8776 34.4436L39.8885 34.4381L26.2218 12.7874L26.2164 12.7902C26.0656 12.5038 25.8297 12.262 25.5356 12.0927C25.2415 11.9234 24.9012 11.8333 24.5537 11.8328C24.1966 11.8332 23.8472 11.928 23.5477 12.1058C23.2481 12.2835 23.0111 12.5367 22.8651 12.8347L13.7702 27.2425L11.5433 23.7151L11.5403 23.7168C11.4609 23.5657 11.3365 23.4382 11.1815 23.3489C11.0265 23.2595 10.8471 23.212 10.6638 23.2117C10.2674 23.2117 9.92753 23.429 9.77413 23.7388L6.48966 28.9421V5.49384H46.5109V34.6868Z" fill="#9A9A9A"/>
<path d="M37.4019 19.3587C40.7574 19.3587 43.4775 16.8707 43.4775 13.8016C43.4775 10.7324 40.7574 8.24445 37.4019 8.24445C34.0463 8.24445 31.3262 10.7324 31.3262 13.8016C31.3262 16.8707 34.0463 19.3587 37.4019 19.3587Z" fill="#9A9A9A"/>
</svg>
