<svg width="40" height="40" viewBox="0 0 40 40" fill="none" xmlns="http://www.w3.org/2000/svg">
<path d="M20.0007 36.6673C16.7043 36.6673 13.482 35.6898 10.7412 33.8585C8.00034 32.0271 5.86413 29.4242 4.60267 26.3787C3.34121 23.3333 3.01115 19.9822 3.65424 16.7492C4.29732 13.5161 5.88467 10.5464 8.21555 8.21555C10.5464 5.88467 13.5161 4.29732 16.7492 3.65424C19.9822 3.01115 23.3333 3.34121 26.3787 4.60267C29.4242 5.86413 32.0271 8.00034 33.8585 10.7412C35.6898 13.482 36.6673 16.7043 36.6673 20.0007C36.6673 24.4209 34.9114 28.6602 31.7858 31.7858C28.6602 34.9114 24.4209 36.6673 20.0007 36.6673ZM20.0007 6.66733C17.3636 6.66733 14.7857 7.44931 12.5931 8.9144C10.4004 10.3795 8.69143 12.4619 7.68227 14.8982C6.6731 17.3346 6.40905 20.0154 6.92352 22.6019C7.43799 25.1883 8.70787 27.564 10.5726 29.4287C12.4373 31.2934 14.813 32.5633 17.3995 33.0778C19.9859 33.5923 22.6668 33.3282 25.1031 32.3191C27.5395 31.3099 29.6218 29.6009 31.0869 27.4083C32.552 25.2156 33.334 22.6377 33.334 20.0007C33.334 16.4644 31.9292 13.0731 29.4287 10.5726C26.9283 8.07208 23.5369 6.66733 20.0007 6.66733Z" fill="#F8B500"/>
</svg>
