<svg width="40" height="40" viewBox="0 0 40 40" fill="none" xmlns="http://www.w3.org/2000/svg">
<path d="M20.0007 11.6673C15.4007 11.6673 11.6673 15.4007 11.6673 20.0007C11.6673 24.6007 15.4007 28.334 20.0007 28.334C24.6007 28.334 28.334 24.6007 28.334 20.0007C28.334 15.4007 24.6007 11.6673 20.0007 11.6673ZM20.0007 3.33398C10.8007 3.33398 3.33398 10.8007 3.33398 20.0007C3.33398 29.2007 10.8007 36.6673 20.0007 36.6673C29.2007 36.6673 36.6673 29.2007 36.6673 20.0007C36.6673 10.8007 29.2007 3.33398 20.0007 3.33398ZM20.0007 33.334C12.634 33.334 6.66732 27.3673 6.66732 20.0007C6.66732 12.634 12.634 6.66732 20.0007 6.66732C27.3673 6.66732 33.334 12.634 33.334 20.0007C33.334 27.3673 27.3673 33.334 20.0007 33.334Z" fill="#F8B500"/>
</svg>
