<svg width="30" height="30" viewBox="0 0 30 30" fill="none" xmlns="http://www.w3.org/2000/svg">
<g clip-path="url(#clip0_1094_732)">
<path d="M0 29.9999V16.875H13.125L7.09312 22.9125C8.12339 23.966 9.3532 24.8037 10.7108 25.3767C12.0683 25.9498 13.5265 26.2466 15 26.25C17.3236 26.2465 19.5891 25.5237 21.4854 24.1808C23.3816 22.8378 24.8155 20.9407 25.59 18.75H25.6238C25.8375 18.1406 26.0006 17.5125 26.1094 16.875H29.8819C29.4252 20.4998 27.6613 23.8332 24.9213 26.2498C22.1812 28.6663 18.6534 29.9998 15 29.9999H14.9812C13.0122 30.0058 11.0614 29.6211 9.24206 28.868C7.42267 28.1148 5.77073 27.0083 4.38187 25.6125L0 29.9999ZM3.88875 13.125H0.11625C0.572767 9.50153 2.33558 6.16908 5.07404 3.75269C7.81251 1.33631 11.3385 0.00201669 14.9906 7.46412e-05H15C16.9694 -0.00616147 18.9205 0.378422 20.7403 1.13155C22.56 1.88468 24.2122 2.99138 25.6012 4.38755L30 7.46412e-05V13.125H16.875L22.9163 7.08754C21.8849 6.03281 20.6536 5.19438 19.2943 4.62131C17.9351 4.04824 16.4751 3.75204 15 3.75006C12.6764 3.75349 10.4109 4.47632 8.51463 5.81925C6.61841 7.16218 5.18453 9.05931 4.41 11.25H4.37625C4.16063 11.8594 3.9975 12.4875 3.89062 13.125H3.88875Z" fill="url(#paint0_linear_1094_732)"/>
</g>
<defs>
<linearGradient id="paint0_linear_1094_732" x1="15" y1="0" x2="15" y2="30" gradientUnits="userSpaceOnUse">
<stop offset="0.364583" stop-color="#F8B500"/>
<stop offset="1" stop-color="#F55B5B"/>
</linearGradient>
<clipPath id="clip0_1094_732">
<rect width="30" height="30" fill="white"/>
</clipPath>
</defs>
</svg>
