<svg width="41" height="41" viewBox="0 0 41 41" fill="none" xmlns="http://www.w3.org/2000/svg">
<path d="M20.4993 37.2918C19.6151 37.2875 18.768 36.9354 18.1412 36.3117C17.5144 35.688 17.1581 34.8427 17.1493 33.9585H23.816C23.8195 34.4041 23.7346 34.846 23.566 35.2585C23.3505 35.7531 23.0205 36.1893 22.6032 36.5313C22.1859 36.8732 21.6933 37.111 21.166 37.2252H21.0877C20.894 37.2655 20.6971 37.2878 20.4993 37.2918ZM33.8327 32.2918H7.16602V28.9585L10.4993 27.2918V18.1252C10.4115 15.7737 10.9426 13.4404 12.0393 11.3585C12.5791 10.4039 13.3151 9.57468 14.1988 8.92541C15.0825 8.27614 16.0938 7.82161 17.166 7.59183V3.9585H23.8327V7.59183C28.131 8.61516 30.4993 12.3552 30.4993 18.1252V27.2918L33.8327 28.9585V32.2918Z" fill="#F8B500"/>
</svg>
