<svg width="70" height="70" viewBox="0 0 70 70" fill="none" xmlns="http://www.w3.org/2000/svg">
<path d="M34.9998 3.88892C28.8466 3.88892 22.8316 5.71355 17.7154 9.13208C12.5992 12.5506 8.6116 17.4095 6.25688 23.0943C3.90215 28.7791 3.28605 35.0345 4.48648 41.0695C5.68691 47.1045 8.64995 52.6479 13.0009 56.9989C17.3519 61.3499 22.8954 64.3129 28.9303 65.5134C34.9653 66.7138 41.2207 66.0977 46.9055 63.743C52.5903 61.3882 57.4492 57.4006 60.8677 52.2844C64.2863 47.1682 66.1109 41.1532 66.1109 35C66.1109 26.7488 62.8331 18.8356 56.9987 13.0012C51.1642 7.16669 43.251 3.88892 34.9998 3.88892V3.88892ZM50.5554 46.8611C51.0711 47.3768 51.3608 48.0763 51.3608 48.8056C51.3608 49.5349 51.0711 50.2343 50.5554 50.75C50.0397 51.2657 49.3402 51.5554 48.6109 51.5554C47.8816 51.5554 47.1822 51.2657 46.6665 50.75L34.9998 39.0834L23.3331 50.7889C23.0778 51.0443 22.7746 51.2468 22.441 51.385C22.1074 51.5232 21.7498 51.5943 21.3887 51.5943C21.0276 51.5943 20.67 51.5232 20.3364 51.385C20.0027 51.2468 19.6996 51.0443 19.4442 50.7889C19.1889 50.5336 18.9863 50.2304 18.8481 49.8968C18.71 49.5632 18.6388 49.2056 18.6388 48.8445C18.6388 48.4834 18.71 48.1258 18.8481 47.7921C18.9863 47.4585 19.1889 47.1554 19.4442 46.9L31.1109 35.1556L19.1137 23.0611C18.598 22.5454 18.3083 21.846 18.3083 21.1167C18.3083 20.3874 18.598 19.6879 19.1137 19.1722C19.6294 18.6566 20.3288 18.3668 21.0581 18.3668C21.7874 18.3668 22.4869 18.6566 23.0026 19.1722L34.9998 31.3056L46.997 19.3084C47.2524 19.053 47.5555 18.8505 47.8891 18.7123C48.2228 18.5741 48.5804 18.5029 48.9415 18.5029C49.3026 18.5029 49.6602 18.5741 49.9938 18.7123C50.3274 18.8505 50.6306 19.053 50.8859 19.3084C51.1413 19.5637 51.3438 19.8669 51.482 20.2005C51.6202 20.5341 51.6913 20.8917 51.6913 21.2528C51.6913 21.6139 51.6202 21.9715 51.482 22.3051C51.3438 22.6388 51.1413 22.9419 50.8859 23.1973L38.8887 35.1556L50.5554 46.8611Z" fill="#F8B500"/>
</svg>
