<svg width="50" height="51" viewBox="0 0 50 51" fill="none" xmlns="http://www.w3.org/2000/svg">
<path d="M44.639 23.6147L9.22237 6.94799C8.86578 6.77927 8.46857 6.71538 8.07705 6.76376C7.68554 6.81213 7.31583 6.97078 7.01102 7.22122C6.70622 7.47166 6.47887 7.80357 6.35547 8.17827C6.23206 8.55297 6.2177 8.95502 6.31404 9.33757L10.3536 25.5001L6.31404 41.6626C6.2168 42.0453 6.23053 42.4477 6.35365 42.8229C6.47676 43.1981 6.70416 43.5304 7.00924 43.7811C7.31432 44.0318 7.68448 44.1904 8.0764 44.2384C8.46832 44.2864 8.86581 44.2218 9.22237 44.0522L44.639 27.3855C44.997 27.2172 45.2996 26.9506 45.5116 26.6167C45.7235 26.2829 45.8361 25.8956 45.8361 25.5001C45.8361 25.1046 45.7235 24.7173 45.5116 24.3834C45.2996 24.0495 44.997 23.7829 44.639 23.6147ZM11.4203 38.4105L13.1682 31.4167L25.0015 25.5001L13.1682 19.5834L11.4203 12.5897L38.8578 25.5001L11.4203 38.4105Z" fill="url(#paint0_linear_43_144)"/>
<defs>
<linearGradient id="paint0_linear_43_144" x1="26.0431" y1="6.74805" x2="26.0431" y2="44.2538" gradientUnits="userSpaceOnUse">
<stop stop-color="#F8B500"/>
<stop offset="1" stop-color="#F84A00"/>
</linearGradient>
</defs>
</svg>
