<svg width="70" height="70" viewBox="0 0 70 70" fill="none" xmlns="http://www.w3.org/2000/svg">
<g clip-path="url(#clip0_59_586)">
<path d="M48.4792 9.00012C49.5325 9.00012 50.5755 9.20759 51.5486 9.61067C52.5217 10.0138 53.406 10.6046 54.1508 11.3494C54.8956 12.0942 55.4864 12.9784 55.8895 13.9515C56.2925 14.9246 56.5 15.9676 56.5 17.021V38.616C55.0974 38.1203 53.5916 37.9908 52.125 38.2397V17.021C52.125 15.0085 50.4917 13.3751 48.4792 13.3751H12.0208C10.0083 13.3751 8.375 15.0085 8.375 17.021V53.4793C8.375 55.4918 10.0083 57.1251 12.0208 57.1251H39.5833C39.21 58.006 39 58.9743 39 59.9951C39 60.5055 39.0292 61.0101 39.0788 61.5001H12.0208C10.9675 61.5001 9.92453 61.2927 8.95139 60.8896C7.97826 60.4865 7.09405 59.8957 6.34925 59.1509C5.60444 58.4061 5.01363 57.5219 4.61055 56.5487C4.20746 55.5756 4 54.5326 4 53.4793V17.021C4 14.8937 4.84505 12.8536 6.34925 11.3494C7.85345 9.84517 9.89358 9.00012 12.0208 9.00012H48.4792ZM53.5833 41.0368C54.3645 41.0117 55.1427 41.1438 55.8719 41.4253C56.601 41.7069 57.2661 42.132 57.8276 42.6756C58.3892 43.2192 58.8359 43.87 59.141 44.5896C59.4462 45.3091 59.6036 46.0826 59.604 46.8642C59.6044 47.6458 59.4477 48.4194 59.1433 49.1393C58.8389 49.8591 58.3929 50.5104 57.8318 51.0546C57.2708 51.5987 56.6061 52.0245 55.8773 52.3068C55.1485 52.589 54.3704 52.7219 53.5892 52.6976C52.0747 52.6505 50.6381 52.0159 49.5832 50.9283C48.5284 49.8406 47.9381 48.3852 47.9373 46.87C47.9366 45.3549 48.5254 43.8989 49.5792 42.8101C50.6329 41.7214 52.069 41.0854 53.5833 41.0368ZM60.875 55.6201C62.0353 55.6201 63.1481 56.0811 63.9686 56.9015C64.7891 57.722 65.25 58.8348 65.25 59.9951C65.25 63.2501 63.9113 65.8576 61.715 67.6193C59.5538 69.3547 56.6546 70.2035 53.5833 70.2035C50.5121 70.2035 47.6129 69.3576 45.4517 67.6193C43.5508 66.1069 42.3176 63.9104 42.0158 61.5001C41.9489 61.0013 41.9158 60.4984 41.9167 59.9951C41.9155 59.4203 42.0279 58.8508 42.2473 58.3195C42.4668 57.7882 42.789 57.3054 43.1955 56.899C43.602 56.4925 44.0848 56.1703 44.6161 55.9508C45.1474 55.7313 45.7168 55.619 46.2917 55.6201H60.875Z" fill="#F8B500"/>
</g>
<defs>
<clipPath id="clip0_59_586">
<rect width="70" height="70" fill="white"/>
</clipPath>
</defs>
</svg>
