<svg width="40" height="40" viewBox="0 0 40 40" fill="none" xmlns="http://www.w3.org/2000/svg">
<path d="M3.23197 3.23331C3.70079 2.76464 4.33656 2.50135 4.99947 2.50135C5.66238 2.50135 6.29815 2.76464 6.76697 3.23331L19.9995 16.4658L33.232 3.23331C33.4626 2.99454 33.7384 2.80408 34.0435 2.67306C34.3485 2.54204 34.6765 2.47307 35.0085 2.47019C35.3404 2.4673 35.6696 2.53056 35.9769 2.65626C36.2841 2.78196 36.5632 2.96759 36.798 3.20233C37.0327 3.43706 37.2183 3.71619 37.344 4.02343C37.4697 4.33067 37.533 4.65987 37.5301 4.99182C37.5272 5.32376 37.4582 5.65181 37.3272 5.95682C37.1962 6.26183 37.0057 6.5377 36.767 6.76831L23.5345 20.0008L36.767 33.2333C37.2224 33.7048 37.4743 34.3363 37.4687 34.9918C37.463 35.6473 37.2 36.2743 36.7365 36.7379C36.273 37.2014 35.646 37.4643 34.9905 37.47C34.335 37.4757 33.7035 37.2237 33.232 36.7683L19.9995 23.5358L6.76697 36.7683C6.29546 37.2237 5.66395 37.4757 5.00846 37.47C4.35297 37.4643 3.72594 37.2014 3.26242 36.7379C2.7989 36.2743 2.53598 35.6473 2.53028 34.9918C2.52459 34.3363 2.77657 33.7048 3.23197 33.2333L16.4645 20.0008L3.23197 6.76831C2.76329 6.29949 2.5 5.66372 2.5 5.00081C2.5 4.3379 2.76329 3.70213 3.23197 3.23331Z" fill="url(#paint0_linear_43:388)"/>
<defs>
<linearGradient id="paint0_linear_43:388" x1="20.0151" y1="2.47009" x2="20.0151" y2="37.4701" gradientUnits="userSpaceOnUse">
<stop stop-color="#F8B500"/>
<stop offset="1" stop-color="#F80000"/>
</linearGradient>
</defs>
</svg>
